<svg width="21" height="21" viewBox="0 0 21 21" fill="none" xmlns="http://www.w3.org/2000/svg">
<ellipse cx="5.93099" cy="1.54685" rx="0.583338" ry="0.578104" fill="white"/>
<ellipse cx="1.36166" cy="6.06248" rx="0.583338" ry="0.578104" fill="white"/>
<ellipse cx="15.0687" cy="1.54685" rx="0.583338" ry="0.578104" fill="white"/>
<ellipse cx="19.638" cy="6.06248" rx="0.583338" ry="0.578104" fill="white"/>
<ellipse cx="19.638" cy="15.2187" rx="0.583338" ry="0.578104" fill="white"/>
<ellipse cx="20.4154" cy="10.7031" rx="0.583338" ry="0.578104" fill="white"/>
<ellipse cx="15.0687" cy="19.7578" rx="0.583338" ry="0.578104" fill="white"/>
<ellipse cx="5.93099" cy="19.7578" rx="0.583338" ry="0.578104" fill="white"/>
<ellipse cx="1.36166" cy="15.2187" rx="0.583338" ry="0.578104" fill="white"/>
<ellipse cx="0.583338" cy="10.7031" rx="0.583338" ry="0.578104" fill="white"/>
<path d="M10.4985 9.91406L10.6745 10.5105L11.2763 10.6849L10.6745 10.8593L10.4985 11.4557L10.3225 10.8593L9.7207 10.6849L10.3225 10.5105L10.4985 9.91406Z" fill="white"/>
<ellipse cx="10.4993" cy="1.25256" rx="1.2639" ry="1.25256" fill="white"/>
<ellipse cx="15.0686" cy="6.05725" rx="1.2639" ry="1.25256" fill="white"/>
<ellipse cx="15.0686" cy="10.5026" rx="1.2639" ry="1.25256" fill="white"/>
<ellipse cx="15.0686" cy="15.2213" rx="1.2639" ry="1.25256" fill="white"/>
<ellipse cx="10.4993" cy="19.7447" rx="1.2639" ry="1.25256" fill="white"/>
<ellipse cx="5.83421" cy="15.3229" rx="1.2639" ry="1.25256" fill="white"/>
<ellipse cx="5.83421" cy="6.05725" rx="1.2639" ry="1.25256" fill="white"/>
<path d="M10.5 3.94531C11.6813 3.94531 12.6387 4.89474 12.6387 6.06543C12.6385 7.23593 11.6812 8.18457 10.5 8.18457C9.93548 8.18452 9.3232 8.24989 8.92757 8.65259L8.41001 9.17939C8.03282 9.56333 7.97168 10.1444 7.97168 10.6826C7.97158 11.2305 8.02956 11.8232 8.41352 12.214L8.80425 12.6118C9.22916 13.0443 9.89367 13.1016 10.5 13.1016C11.6813 13.1016 12.6387 14.051 12.6387 15.2217C12.6385 16.3922 11.6812 17.3408 10.5 17.3408C9.31894 17.3407 8.36155 16.3921 8.36133 15.2217C8.36133 14.5983 8.3175 13.9109 7.88053 13.4664L7.73689 13.3202C7.26293 12.8381 6.50913 12.8018 5.83301 12.8018C4.65186 12.8018 3.69455 11.8531 3.69434 10.6826C3.69434 9.51193 4.65173 8.5625 5.83301 8.5625C6.51844 8.5625 7.28463 8.5287 7.76503 8.03979L7.86931 7.93366C8.33276 7.46201 8.36145 6.72667 8.36133 6.06543C8.36133 4.89481 9.31881 3.94542 10.5 3.94531Z" fill="white"/>
</svg>
